<?xml version="1.0" encoding="UTF-8"?>
<svg preserveAspectRatio="xMidYMid slice" width="60px" height="60px" xmlns="http://www.w3.org/2000/svg" viewBox="0 0 1024 1024" fill="none">
  <circle cx="512" cy="512" r="512" fill="#DC2626"></circle>
  <path fill-rule="evenodd" clip-rule="evenodd" d="M281.573 647.675C273.534 647.675 264.055 649.922 255.872 656.347C247.689 662.772 241.668 673.808 241.235 687.666C240.918 697.779 233.571 705.357 223.89 705.357H195.136C182.545 705.357 172 715.729 172 728.32V797.584C172 810.175 182.545 820.547 195.136 820.547H275.784C293.244 820.547 309.84 806.458 310.33 786.348C310.56 776.321 317.994 768.83 327.675 768.83H344.847C357.437 768.83 367.983 758.284 367.983 745.694V670.843C367.983 658.253 357.437 647.707 344.847 647.707H281.547L281.573 647.675ZM281.573 670.811H344.873V745.661H327.701C305.544 745.661 287.883 764.015 287.363 785.825C287.162 794.037 281.399 797.552 275.781 797.552H195.133V728.287H223.887C246.044 728.287 263.533 710.165 264.224 688.469C264.484 680.315 267.019 676.83 270.189 674.351C273.329 671.873 278.054 670.778 281.598 670.778L281.573 670.811Z" fill="#F9FAFB"></path>
  <path d="M246.994 762.982C246.994 769.35 241.837 774.507 235.47 774.507C229.102 774.507 223.945 769.35 223.945 762.982C223.945 756.615 229.102 751.457 235.47 751.457C241.837 751.457 246.994 756.615 246.994 762.982Z" fill="#F9FAFB"></path>
  <path d="M321.911 711.122C321.911 717.49 316.754 722.647 310.387 722.647C304.019 722.647 298.862 717.49 298.862 711.122C298.862 704.755 304.019 699.598 310.387 699.598C316.754 699.598 321.911 704.755 321.911 711.122Z" fill="#F9FAFB"></path>
  <path fill-rule="evenodd" clip-rule="evenodd" d="M508.234 215.492C482.418 215.434 456.66 231.655 445.625 254.964L253.852 659.916L274.769 669.798L466.542 264.847C472.766 251.709 493.741 238.455 508.233 238.484C536.526 238.57 558.914 238.83 592.798 239.002V250.239C570.123 250.325 563.467 250.239 531.716 250.239C511.865 250.239 493.54 262.772 486.625 281.385L345.731 660.985L367.34 669.139L508.235 289.539C511.087 281.875 523.534 273.203 531.716 273.203C569.317 273.203 566.666 273.462 604.381 273.203C610.72 273.145 615.819 267.959 615.791 261.621V227.421C615.819 221.082 610.72 215.925 604.381 215.838C570.382 215.666 535.172 215.578 508.234 215.492Z" fill="#F9FAFB"></path>
  <path fill-rule="evenodd" clip-rule="evenodd" d="M804.627 204.086C798.749 204.748 794.341 209.762 794.427 215.668V273.004C794.427 279.4 799.585 284.557 805.981 284.557C812.377 284.557 817.563 279.4 817.563 273.004V215.668C817.592 212.326 816.18 209.156 813.703 206.938C811.225 204.719 807.912 203.682 804.627 204.086Z" fill="#F9FAFB"></path>
  <path fill-rule="evenodd" clip-rule="evenodd" d="M764.288 204.086C758.439 204.748 754.031 209.762 754.089 215.668V273.004C753.829 276.202 754.895 279.4 757.085 281.763C759.275 284.154 762.358 285.479 765.584 285.479C768.811 285.479 771.865 284.154 774.055 281.763C776.245 279.4 777.339 276.202 777.051 273.004V215.668C777.08 212.355 775.697 209.214 773.277 207.024C770.828 204.806 767.573 203.74 764.288 204.086Z" fill="#F9FAFB"></path>
  <path fill-rule="evenodd" clip-rule="evenodd" d="M723.979 204.086C718.101 204.748 713.693 209.762 713.751 215.668V273.004C713.491 276.202 714.586 279.4 716.747 281.763C718.937 284.154 722.02 285.479 725.246 285.479C728.473 285.479 731.556 284.154 733.746 281.763C735.906 279.4 737.001 276.202 736.742 273.004V215.668C736.771 212.355 735.388 209.214 732.939 206.995C730.519 204.806 727.234 203.74 723.979 204.086Z" fill="#F9FAFB"></path>
  <path fill-rule="evenodd" clip-rule="evenodd" d="M683.64 204.086C677.791 204.748 673.383 209.762 673.44 215.668V273.004C673.152 276.202 674.247 279.4 676.437 281.763C678.627 284.154 681.681 285.479 684.907 285.479C688.134 285.479 691.217 284.154 693.407 281.763C695.596 279.4 696.662 276.202 696.403 273.004V215.668C696.432 212.355 695.049 209.214 692.629 206.995C690.18 204.806 686.925 203.74 683.64 204.086Z" fill="#F9FAFB"></path>
  <path fill-rule="evenodd" clip-rule="evenodd" d="M643.338 204.086C637.46 204.748 633.052 209.762 633.11 215.668V273.004C632.851 276.202 633.945 279.4 636.106 281.763C638.296 284.154 641.379 285.479 644.606 285.479C647.832 285.479 650.915 284.154 653.076 281.763C655.266 279.4 656.361 276.202 656.073 273.004V215.668C656.13 212.355 654.747 209.214 652.298 206.995C649.849 204.806 646.593 203.74 643.338 204.086Z" fill="#F9FAFB"></path>
  <path fill-rule="evenodd" clip-rule="evenodd" d="M840.356 215.492C837.273 215.52 834.363 216.788 832.202 218.978C830.069 221.196 828.888 224.164 828.946 227.218V261.418C828.946 267.814 834.132 273.001 840.528 273.001C846.924 273.001 852.11 267.814 852.11 261.418V227.218C852.168 224.107 850.929 221.081 848.711 218.863C846.521 216.644 843.496 215.434 840.356 215.492Z" fill="#F9FAFB"></path>
</svg>
